<svg width="165" height="44" viewBox="0 0 165 44" fill="none" xmlns="http://www.w3.org/2000/svg">
<g clip-path="url(#clip0_1564_12824)">
<path d="M16.5138 18.2075V41.7914L1.28223 33.984V10.3542L16.5138 18.2075Z" fill="white"/>
<path d="M39.4278 11.9209L17.2377 17.1186L2.50439 9.52284L24.6881 4.33386L39.4278 11.9209Z" fill="white"/>
<path d="M40.6585 12.9727V36.6133L17.7961 42.0292V18.3253L40.6585 12.9727Z" fill="white"/>
<path d="M17.2419 43.4934C17.2613 43.4934 17.2806 43.489 17.2977 43.4847L17.3278 43.476C17.2977 43.4847 17.272 43.4869 17.2419 43.4912V43.4934Z" fill="black"/>
<path d="M41.934 12.0606C41.9297 12.0148 41.919 11.969 41.9039 11.9275C41.8953 11.9079 41.8889 11.8882 41.8782 11.8708C41.8395 11.7835 41.7794 11.7049 41.6999 11.6438C41.6698 11.6198 41.6398 11.6024 41.6097 11.5827C41.6011 11.5784 41.5989 11.574 41.5904 11.5718L25.0616 3.06609C24.9263 2.99627 24.7716 2.97881 24.6277 3.01154L0.493924 8.65657C0.493924 8.65657 0.483185 8.66094 0.474594 8.6653C0.444526 8.66966 0.414459 8.68058 0.384391 8.69585C0.358618 8.70676 0.330698 8.72203 0.304925 8.73731C0.270562 8.75695 0.236199 8.78313 0.206131 8.81368C0.191097 8.82459 0.176063 8.83987 0.165324 8.85514C0.139552 8.88133 0.115927 8.91187 0.0965974 8.94242C0.0858589 8.96206 0.0729726 8.98388 0.062234 9.00789C0.0321661 9.06898 0.00854129 9.13881 0.00209815 9.21082C-0.00219727 9.237 -0.00219727 9.26537 -0.00219727 9.29156V34.3811C-0.00219727 34.6298 0.133108 34.8524 0.34788 34.9637L16.8423 43.417C16.8724 43.4367 16.9067 43.4476 16.9411 43.4585C16.9712 43.4694 17.0055 43.4825 17.0399 43.4847C17.0785 43.4934 17.1151 43.4956 17.1537 43.4956C17.1838 43.4956 17.2138 43.4956 17.2396 43.4869C17.2697 43.4825 17.2955 43.4781 17.3255 43.4716L41.4443 37.7567C41.7343 37.6869 41.9383 37.4272 41.9383 37.1239V12.1413C41.9383 12.1152 41.934 12.0868 41.9297 12.0606H41.934ZM24.6879 4.33388L39.4298 11.921L17.2396 17.1187L2.50418 9.52286L24.6879 4.33388ZM1.28213 10.3542L16.5137 18.2075V41.7914L1.28213 33.9839V10.3542ZM40.6583 36.6133L17.7959 42.0292V18.3254L40.6583 12.9705V36.6133Z" fill="black"/>
<path d="M38.9873 16.2677V33.8552C38.9873 34.032 38.8713 34.1847 38.7038 34.2262L31.4467 36.0701C31.2878 36.1115 31.1224 36.0439 31.0365 35.9042L29.546 33.5236L27.9696 36.7421C27.9202 36.8447 27.8257 36.9189 27.7161 36.9451L20.139 38.7082C20.1132 38.7169 20.0832 38.7191 20.0552 38.7191C19.9715 38.7191 19.8856 38.6885 19.8211 38.634C19.7309 38.562 19.6772 38.4507 19.6772 38.3351V20.5555C19.6772 20.3744 19.7975 20.2216 19.9715 20.1845L38.5256 15.8924C38.6394 15.8684 38.7554 15.8968 38.8456 15.9688C38.9315 16.0408 38.9852 16.1499 38.9852 16.2677H38.9873Z" fill="black"/>
<path d="M27.1921 23.641V30.9597L24.4902 31.6078V24.2738L27.1921 23.641Z" fill="#0AFFC8"/>
<path d="M34.17 22.0088V29.2882L31.698 29.8795V22.587L34.17 22.0088Z" fill="#0AFFC8"/>
<path d="M12.2783 21.8887V32.6725L10.9768 33.0478V22.8422C10.9768 22.5978 10.8415 22.3753 10.6289 22.2596L4.46924 19.0607L5.66766 18.4323L12.2762 21.8887H12.2783Z" fill="#00AF91"/>
<path d="M13.2127 20.9133L5.96198 17.1186C5.77728 17.0226 5.55821 17.0226 5.37351 17.1186L2.80485 18.4672C2.78982 18.4759 2.77478 18.4824 2.75975 18.4933C2.74901 18.4977 2.73612 18.5043 2.72968 18.5086L2.69532 18.5326C2.66954 18.5479 2.64162 18.5719 2.62015 18.5937C2.60082 18.6134 2.58149 18.633 2.56431 18.6548C2.55357 18.6657 2.54498 18.6788 2.53853 18.6941C2.5235 18.7094 2.51276 18.729 2.50417 18.7486C2.49343 18.7683 2.48055 18.7901 2.4741 18.8097C2.46551 18.825 2.46336 18.8403 2.45477 18.8556L2.44403 18.9014C2.44403 18.9014 2.43544 18.921 2.43544 18.9319C2.42471 18.9778 2.42041 19.0192 2.42041 19.0651V30.1369C2.42041 30.3813 2.55572 30.6039 2.77049 30.7195L10.0362 34.4858L10.0448 34.4902C10.135 34.536 10.2381 34.56 10.3347 34.56C10.3949 34.56 10.4507 34.5513 10.5087 34.536L13.0967 33.7963C13.3716 33.7155 13.5606 33.458 13.5606 33.1678V21.4915C13.5606 21.2471 13.4296 21.0246 13.2127 20.9133ZM9.69256 32.8471L3.70259 29.7398V20.1321L9.69256 23.2437V32.8471ZM12.2763 32.6747L10.9747 33.05V22.8444C10.9747 22.6 10.8394 22.3774 10.6268 22.2618L4.46718 19.0629L5.6656 18.4344L12.2741 21.8908V32.6747H12.2763Z" fill="black"/>
<path d="M9.6948 23.2415V32.847L3.70483 29.7376V20.1299L9.6948 23.2415Z" fill="#0AFFC8"/>
<path d="M11.8146 3.56805V4.98203L13.681 4.55653L11.8146 3.56805ZM24.0287 9.83497C23.9835 9.84588 23.9342 9.85025 23.8848 9.85025C23.786 9.85025 23.6893 9.82624 23.6013 9.78042L19.6602 7.79037L13.1376 9.32C12.9916 9.35492 12.8326 9.33091 12.6995 9.26327L9.28247 7.4696L9.36838 9.83497L13.0753 11.7814L19.5936 10.2561C19.643 10.2452 19.6924 10.2408 19.7397 10.2408C19.8385 10.2408 19.9351 10.2648 20.0232 10.3107L23.9642 12.3007L29.0822 11.1006V8.65229L24.0244 9.83715L24.0287 9.83497ZM24.7803 5.56465C24.8147 5.28971 25.0145 5.06714 25.2829 5.00822L30.0809 3.94991L27.4886 2.59048L21.3526 3.97828C21.2066 4.01319 21.0541 3.99355 20.9231 3.92373L16.8489 1.83984L13.0195 2.73668L15.8373 4.22267C16.0757 4.34923 16.211 4.61326 16.1766 4.88166C16.1423 5.15442 15.9425 5.37699 15.6826 5.43372L11.3443 6.4222L10.4702 6.62077L13.0796 7.9933L19.5979 6.46803C19.6473 6.45712 19.6967 6.44839 19.744 6.44839C19.8428 6.44839 19.9394 6.47457 20.0275 6.51822L23.9685 8.51045L27.843 7.60271L25.1304 6.22582C24.8856 6.10362 24.746 5.83523 24.7803 5.56247V5.56465ZM27.334 5.88978L29.8167 7.14665L31.3223 6.83244V5.00822L27.3361 5.88978H27.334Z" fill="#00AF9B"/>
<path d="M25.1283 6.22801L27.8408 7.60491L23.9664 8.51265L20.0253 6.52041C19.9394 6.47895 19.8406 6.45059 19.7418 6.45059C19.6924 6.45059 19.643 6.45932 19.5958 6.47023L13.0775 7.9955L10.468 6.62297L11.3421 6.4244L15.6805 5.43592C15.9404 5.37919 16.1401 5.15662 16.1745 4.88386C16.2088 4.61546 16.0735 4.35143 15.8351 4.22487L13.0173 2.73887L16.8467 1.84204L20.9209 3.92592C21.0519 3.99575 21.2044 4.01321 21.3505 3.98048L27.4865 2.59268L30.0788 3.95211L25.2808 5.01042C25.0123 5.06715 24.8126 5.28972 24.7782 5.56685C24.7438 5.83961 24.8834 6.108 25.1283 6.2302V6.22801Z" fill="#0AFFC8"/>
<path d="M7.96594 6.29559C7.96167 6.32178 7.96167 6.35015 7.96167 6.37633C7.96167 6.33705 7.96594 6.30432 7.97235 6.26941C7.96807 6.27814 7.96381 6.28905 7.96381 6.29559H7.96594Z" fill="black"/>
<path d="M32.2545 3.62042L27.8667 1.32051C27.7314 1.25068 27.5811 1.22886 27.4329 1.26378L21.2926 2.65594L17.2184 0.569876C17.083 0.50005 16.9327 0.482593 16.7845 0.515325L11.0286 1.85948C10.9299 1.88349 10.8439 1.92931 10.7688 1.99041C10.7452 2.01005 10.7237 2.02969 10.7043 2.05151C10.7 2.05587 10.6958 2.06023 10.6936 2.06678C10.6743 2.08642 10.6549 2.1126 10.6399 2.13661C10.6249 2.16061 10.6098 2.1868 10.5948 2.21298C10.5841 2.23916 10.5755 2.26317 10.5647 2.28935C10.5562 2.31336 10.5497 2.33518 10.5497 2.36136C10.5411 2.37664 10.5411 2.39627 10.539 2.41155V2.43119C10.5304 2.45083 10.5304 2.47265 10.5304 2.49665V5.27225L8.46428 5.74358C8.38482 5.75885 8.31394 5.79377 8.24951 5.83523C8.22374 5.85487 8.20012 5.8745 8.17864 5.89196C8.14427 5.92251 8.11421 5.95306 8.08843 5.99234C8.0777 6.01198 8.06266 6.03161 8.05407 6.05343C8.04548 6.0578 8.04333 6.06216 8.04333 6.06871C8.0283 6.09271 8.01756 6.1189 8.00897 6.14508C8.00038 6.15381 7.99823 6.16036 7.99823 6.17127C7.98749 6.20182 7.9789 6.23237 7.97461 6.26728C7.96601 6.30219 7.96387 6.3371 7.96387 6.3742V6.40038L8.10347 10.2561C8.11206 10.494 8.24307 10.7034 8.4514 10.8125L12.6996 13.047C12.8349 13.119 12.9938 13.1386 13.1398 13.1037L19.6624 11.5741L23.6035 13.5641C23.6894 13.61 23.7882 13.634 23.887 13.634C23.9364 13.634 23.9858 13.6296 24.0309 13.6187L29.8727 12.2505C30.1626 12.1807 30.3709 11.921 30.3709 11.6134V8.35989L32.0912 7.99985C32.3898 7.93438 32.6045 7.67035 32.6045 7.3605V4.19867C32.6045 3.95646 32.4692 3.73171 32.2566 3.62042H32.2545ZM31.3181 6.83244L29.8125 7.14665L27.3298 5.88978L31.3159 5.00822V6.83244H31.3181ZM11.8147 3.56805L13.6811 4.55653L11.8147 4.98204V3.56805ZM11.3422 6.42221L15.6806 5.43372C15.9405 5.37699 16.1402 5.15442 16.1746 4.88166C16.2089 4.61326 16.0736 4.34923 15.8352 4.22267L13.0174 2.73668L16.8468 1.83984L20.921 3.92373C21.052 3.99355 21.2045 4.01101 21.3505 3.97828L27.4866 2.59048L30.0788 3.94991L25.2809 5.00822C25.0124 5.06495 24.8127 5.28753 24.7783 5.56465C24.7439 5.83741 24.8835 6.1058 25.1284 6.228L27.8409 7.60489L23.9665 8.51263L20.0254 6.5204C19.9395 6.47894 19.8407 6.45057 19.7419 6.45057C19.6925 6.45057 19.6431 6.4593 19.5959 6.47021L13.0776 7.99548L10.4681 6.62296L11.3422 6.42439V6.42221ZM29.0866 11.0984L23.9686 12.2985L20.0276 10.3085C19.9416 10.2627 19.8429 10.2387 19.7441 10.2387C19.6947 10.2387 19.6453 10.243 19.598 10.2539L13.0797 11.7792L9.37276 9.83279L9.28686 7.46742L12.7039 9.26109C12.8349 9.33091 12.9938 9.35273 13.142 9.31782L19.6646 7.78819L23.6056 9.77824C23.6916 9.82406 23.7903 9.84807 23.8891 9.84807C23.9385 9.84807 23.9879 9.8437 24.033 9.83279L29.0909 8.64792V11.0962L29.0866 11.0984Z" fill="black"/>
<path d="M161.463 33.1896H165V22.9186L162.015 21.3759H161.463V15.7308L158.48 14.1881H148.368V17.782H144.833V21.3541H143.778V15.7308L140.795 14.1881H130.684V17.782H127.149V28.5615H122.557V15.7047L119.574 14.1881H113.002V21.3759H111.928V15.7308L108.964 14.1881H102.39V21.3541H101.338V15.7308L98.3523 14.1881H88.243V17.782H83.6855V15.7308L80.6938 14.1881H70.5587V17.8082H65.9691V15.7308L62.9838 14.1881H49.3394V35.2408L52.3225 36.7813H65.9691V33.1896H67.0215V35.2408L70.0068 36.7813H76.5788V29.5958H77.6591V35.2408L80.6422 36.7813H101.338V33.1896H102.388V35.2408L105.375 36.7813H111.947V29.5958H113.002V35.2408L115.985 36.7813H143.778V33.1896H144.829V35.2408L147.816 36.7813H161.463V33.1896Z" fill="black"/>
<path d="M64.4508 24.4591H57.3762V20.8674H64.4508V17.2736H57.3762H53.8411V35.2408H57.3762H64.4508V31.6469H57.3762V28.053H64.4508V31.6469H67.988V28.053V24.4591V20.8674H64.4508V24.4591Z" fill="white"/>
<path d="M82.1608 24.4591H75.0605V20.8674H71.5254V35.2408H75.0605V28.053H82.1608V35.2408H85.6981V20.8674H82.1608V24.4591Z" fill="white"/>
<path d="M82.1609 17.2736H75.0605V20.8674H82.1609V17.2736Z" fill="white"/>
<path d="M99.8192 17.2736H92.7446V20.8674H99.8192V17.2736Z" fill="white"/>
<path d="M142.262 17.2736H135.188V20.8674H142.262V17.2736Z" fill="white"/>
<path d="M138.723 24.4591V28.053H142.26V31.6469H145.797V24.4591H142.26H138.723Z" fill="white"/>
<path d="M99.8172 31.6469H89.2075V35.2407H99.8172V31.6469Z" fill="white"/>
<path d="M92.7448 20.8674H89.2075V28.053H92.7448H99.8194V31.6469H103.357V28.053V24.4591H92.7448V20.8674Z" fill="white"/>
<path d="M117.503 24.4591H110.429V17.2736H106.892V35.2408H110.429V28.053H117.503V35.2408H121.039V17.2736H117.503V24.4591Z" fill="white"/>
<path d="M135.188 20.8674H131.65V31.6469V35.2408H142.26V31.6469H135.188V20.8674Z" fill="white"/>
<path d="M159.944 17.2736H152.87V20.8674H159.944V17.2736Z" fill="white"/>
<path d="M152.87 20.8674H149.335V31.6469V35.2408H159.944V31.6469H152.87V20.8674Z" fill="white"/>
<path d="M159.944 24.4591H156.407V28.053H159.944V31.6469H163.482V24.4591H159.944Z" fill="white"/>
<path d="M128.113 31.6469H124.576V35.2407H128.113V31.6469Z" fill="white"/>
</g>
<defs>
<clipPath id="clip0_1564_12824">
<rect width="165" height="43" fill="white" transform="translate(0 0.5)"/>
</clipPath>
</defs>
</svg>
