      <svg
        width="52"
        height="52"
        viewBox="0 0 52 52"
        fill="none"
        xmlns="http://www.w3.org/2000/svg"
      >
        <circle cx="26" cy="26" r="26" fill="#1D4339" />
        <path
          d="M18.632 19.104C18.632 18.0587 18.8347 17.1627 19.24 16.416C19.6667 15.6693 20.2213 15.0613 20.904 14.592C21.608 14.1227 22.3973 13.7813 23.272 13.568C24.1467 13.3333 25.032 13.216 25.928 13.216C26.3547 13.216 26.856 13.2373 27.432 13.28C28.0293 13.3227 28.6267 13.3973 29.224 13.504C29.8427 13.6107 30.44 13.76 31.016 13.952C31.592 14.1227 32.0827 14.3467 32.488 14.624V19.04C32.296 18.336 31.9867 17.664 31.56 17.024C31.1547 16.3627 30.664 15.7867 30.088 15.296C29.512 14.784 28.8613 14.3787 28.136 14.08C27.432 13.76 26.6747 13.6 25.864 13.6C25.224 13.6 24.584 13.6853 23.944 13.856C23.3253 14.0053 22.76 14.2507 22.248 14.592C21.7573 14.912 21.352 15.328 21.032 15.84C20.7333 16.352 20.584 16.9707 20.584 17.696C20.584 18.464 20.7653 19.136 21.128 19.712C21.512 20.2667 22.0133 20.768 22.632 21.216C23.2507 21.664 23.9547 22.08 24.744 22.464C25.5333 22.8267 26.3333 23.2 27.144 23.584C27.976 23.9467 28.7867 24.3307 29.576 24.736C30.3653 25.1413 31.0693 25.6107 31.688 26.144C32.3067 26.656 32.7973 27.2533 33.16 27.936C33.544 28.6187 33.736 29.408 33.736 30.304C33.736 31.4773 33.5013 32.4587 33.032 33.248C32.5627 34.016 31.944 34.6347 31.176 35.104C30.4293 35.552 29.576 35.872 28.616 36.064C27.656 36.256 26.6853 36.352 25.704 36.352C25.256 36.352 24.712 36.32 24.072 36.256C23.432 36.2133 22.7707 36.1173 22.088 35.968C21.4267 35.8187 20.7867 35.6373 20.168 35.424C19.5493 35.1893 19.0373 34.8907 18.632 34.528V29.792C18.8453 30.688 19.1653 31.52 19.592 32.288C20.04 33.056 20.5733 33.7173 21.192 34.272C21.832 34.8053 22.5467 35.232 23.336 35.552C24.1467 35.8507 25.0213 36 25.96 36C26.6213 36 27.272 35.9253 27.912 35.776C28.552 35.6053 29.128 35.3493 29.64 35.008C30.152 34.6453 30.5573 34.1973 30.856 33.664C31.176 33.1093 31.336 32.448 31.336 31.68C31.336 30.5493 31.016 29.6107 30.376 28.864C29.7573 28.1173 28.9787 27.4773 28.04 26.944C27.1013 26.3893 26.0773 25.888 24.968 25.44C23.88 24.9707 22.8667 24.4587 21.928 23.904C20.9893 23.3493 20.2 22.6987 19.56 21.952C18.9413 21.2053 18.632 20.256 18.632 19.104Z"
          fill="white"
        />
      </svg>
