<svg  viewBox="0 0 744 744" fill="none" xmlns="http://www.w3.org/2000/svg">
<path d="M20.5761 259.799C25.3916 254.612 11.1537 277.052 10.3434 340.945C10.2739 346.781 9.67202 435.082 68.1515 515.603C123.691 592.071 231.436 664.764 370.435 664.185C444.773 663.884 496.469 648.183 543.396 626.044C568.746 614.094 589.166 601.311 608.358 585.054C649.474 550.201 683.668 514.584 703.786 473.779C735.341 409.771 735.758 356.09 735.596 351.204C733.42 289.048 725.201 266.214 730.364 280.942C734.647 293.147 738.698 320.589 739.809 343.677C740.064 348.934 740.157 354.678 740.18 356.299C742.518 563.355 606.274 728.634 371.222 730C151.704 725.808 5.45852 550.548 4 349.027C4 347.8 4.30098 339.949 4.48619 336.938C7.12541 293.008 15.7607 264.986 20.5761 259.799Z" fill="url(#paint0_linear)"/>
<path d="M84.3115 339.602C84.3115 365.146 88.7102 389.786 96.8825 413.037L448.709 96.7904C424.609 91.0935 399.281 88.0366 373.121 88.0366C358.836 88.0366 344.807 88.9629 331.078 90.6998L86.2099 310.794C84.9829 320.266 84.3115 329.876 84.3115 339.602ZM163.72 512.663L565.135 151.86C548.42 138.892 529.992 127.567 510.175 118.212L123.414 465.837C134.758 482.812 148.301 498.513 163.72 512.663ZM211.272 547.84C222.106 554.254 233.474 560.021 245.281 565.116L626.949 219.667C620.652 209.593 613.567 199.936 605.789 190.743L211.272 547.84ZM115.936 225.202L233.705 119.346C183.398 143.616 142.212 180.553 115.936 225.202Z" fill="url(#paint1_linear)"/>
<path d="M373.121 665.158C173.073 665.158 10.3208 519.1 10.3208 339.579C10.3208 160.058 173.073 14 373.121 14C573.169 14 735.944 160.058 735.944 339.579C735.944 519.1 573.169 665.158 373.121 665.158ZM373.121 46.1897C190.806 46.1897 42.4776 177.797 42.4776 339.579C42.4776 501.361 190.806 632.991 373.121 632.991C555.435 632.991 703.787 501.384 703.787 339.602C703.787 177.82 555.435 46.1897 373.121 46.1897Z" fill="url(#paint2_linear)"/>
<defs>
<linearGradient id="paint0_linear" x1="83.02" y1="592.159" x2="704.012" y2="233.738" gradientUnits="userSpaceOnUse">
<stop stop-color="#9958EC"/>
<stop offset="0.074" stop-color="#8D6EE2"/>
<stop offset="0.2911" stop-color="#6DA9C8"/>
<stop offset="0.4513" stop-color="#59CEB7"/>
<stop offset="0.536" stop-color="#51DCB1"/>
</linearGradient>
<linearGradient id="paint1_linear" x1="438.961" y1="453.264" x2="242.599" y2="113.258" gradientUnits="userSpaceOnUse">
<stop offset="0.1139" stop-color="#51DCB1"/>
<stop offset="0.3581" stop-color="#5D9FD1"/>
<stop offset="0.585" stop-color="#9958EC"/>
<stop offset="0.6549" stop-color="#A24EEB"/>
<stop offset="0.773" stop-color="#BB34EA"/>
<stop offset="0.8914" stop-color="#D913E8"/>
</linearGradient>
<linearGradient id="paint2_linear" x1="540.678" y1="629.89" x2="205.422" y2="49.3859" gradientUnits="userSpaceOnUse">
<stop stop-color="#51DCB1"/>
<stop offset="0.348" stop-color="#5D9FD1"/>
<stop offset="0.6111" stop-color="#9958EC"/>
<stop offset="0.6863" stop-color="#A24EEB"/>
<stop offset="0.8131" stop-color="#BB34EA"/>
<stop offset="0.9403" stop-color="#D913E8"/>
</linearGradient>
</defs>
</svg>
